<?xml version="1.0" encoding="utf-8"?>
<!-- Generator: Adobe Illustrator 19.2.1, SVG Export Plug-In . SVG Version: 6.00 Build 0)  -->
<svg version="1.1" id="layer" xmlns="http://www.w3.org/2000/svg" xmlns:xlink="http://www.w3.org/1999/xlink" x="0px" y="0px"
	 viewBox="0 0 652 652" style="enable-background:new 0 0 652 652;" xml:space="preserve">
<style type="text/css">
	.st0{fill:#2D4C60;}
</style>
<g>
	<g>
		<path class="st0" d="M91.2,360.5c9.7-14,10.7-41.4-5.8-63.2c5.6,14,4.3,34.8-3.3,52.4L91.2,360.5z"/>
		<path class="st0" d="M150.4,364.3c8.4-22.9,11.6-69.6-32.1-111.5c19.3,30.1,27.9,68.8,12.5,110.7c-3.3,0-11.1,0.1-16.2,0.4
			c12.7-16.7,17.2-48.8-10.8-92.1c7.4,25.6,10.6,48.1-0.2,76.8l10.8,15.2c-33.4,1.7-77.3,8.5-99.4,11.9l3.3,1.6
			c14.9-2.1,99.4-14.1,148.6-4.7l8.2-4.1C169.7,366.7,161,365.1,150.4,364.3"/>
	</g>
	<g>
		<path class="st0" d="M399.8,292.1h-3.9v57.3l-48.7-57.3h-11.4c1.7,0.8,4.2,3.1,4.2,6.2v66.3h3.9v-63.6l53.4,63.6h2.5V292.1z"/>
		<path class="st0" d="M542.9,292.1v57.3l-48.7-57.3h-11.4c1.7,0.8,4.2,3.1,4.2,6.2v66.3h3.9v-63.6l53.4,63.6h2.5v-68.4
			c4.5-0.5,15.4-1.3,27.6-1.3v69.6h9V295c17.5,0,30.1,1.5,30.1,1.5l1.5-4.4H542.9z"/>
		<path class="st0" d="M293,291.2c-24.6,0-36.6,16.6-36.6,37.1c0,20.5,11.9,37.2,36.6,37.2c24.7,0,36.6-16.6,36.6-37.2
			C329.7,307.9,317.7,291.2,293,291.2 M293.7,362.7c-18.4,0-27.5-15.4-27.8-34.3c-0.3-19,8.2-34.3,26.6-34.3
			c18.5,0,27.5,15.4,27.8,34.3C320.6,347.3,312,362.7,293.7,362.7"/>
		<path class="st0" d="M191.3,292.1c1.7,0.8,4.2,3.1,4.2,6.2v66.3h9v-68.9c3.7-0.5,11.2-1,16.3-0.7c4.5,0.2,10,1.6,13.6,4.1
			c4.3,3.1,6.7,7.4,6.8,13.4c0.6,24.7-23.9,23.3-33.9,20.4v3.7c8,1.2,25.9,2.6,37.3-8.2c4.2-4,6.3-10.3,5.9-16.3
			c-0.5-7.7-5.3-14.9-17.9-18.4c-6.9-1.9-14.3-1.7-24.9-1.7H191.3z"/>
		<path class="st0" d="M470.9,364.7h10.1l-37.6-72.6H439l-33.3,72.6h4.3l11.8-25.8h35.4L470.9,364.7z M423.4,335.4l14.9-32.5
			l17.1,32.5H423.4z"/>
	</g>
</g>
</svg>
